<svg
  xmlns="http://www.w3.org/2000/svg"
  version="1.1"
  xmlns:xlink="http://www.w3.org/1999/xlink"
  xmlns:svgjs="http://svgjs.com/svgjs"
  width="352.3"
  height="483.14">
  <svg id="SvgjsSvg1000" data-name="Capa 1" xmlns="http://www.w3.org/2000/svg"
    viewBox="0 0 352.3 483.14">
    <defs>
      <style>
        .cls-1 {
        fill: #70eb97; /* Color verde */
        }

        .cls-1, .cls-2 {
        stroke-width: 0px;
        }

        .cls-2 {
        fill: #18184c; /* Color azul */
        }

        @media (prefers-color-scheme: dark) {
        .cls-2 {
        fill: #fff; /* Cambia el color azul a blanco en modo oscuro */
        }
        }
      </style>
    </defs>
    <path class="cls-2"
      d="m8.49,340.81c10.76,10.76,28.2,10.76,38.97,0l60.57-60.55,19.47-19.49c10.75-10.76,10.75-28.2,0-38.96l-80.44-80.46c-10.76-10.77-28.22-10.77-38.98,0h0c-10.76,10.76-10.76,28.2,0,38.97l60.95,60.98-60.53,60.53c-10.76,10.76-10.76,28.21,0,38.98h0Z"></path>
    <path class="cls-1"
      d="m343.46,219.75l-38.78-38.74v-73.98c0-43-28.48-107.03-107.03-107.03H30.16C13.5,0,0,13.5,0,30.16h0c0,16.66,13.5,30.16,30.16,30.16h167.49c44.47,0,46.71,38.91,46.71,46.71v86.48c0,7.96,3.16,15.6,8.79,21.24l26.41,26.46-.35.34-26.11,26.41c-5.6,5.64-8.75,13.27-8.75,21.2v86.95c0,44.47-38.91,46.71-46.71,46.71H30.16c-16.66,0-30.16,13.5-30.16,30.16h0c0,16.66,13.5,30.16,30.16,30.16h167.49c43.04,0,107.03-28.52,107.03-107.03v-74.54l38.86-39.25c5.69-5.77,8.62-13.27,8.75-20.77.09-7.88-2.84-15.81-8.83-21.8Z"></path>
  </svg>
</svg>