<svg id="Capa_1" data-name="Capa 1" xmlns="http://www.w3.org/2000/svg" viewBox="0 0 793.19 130.79">
    <defs>
        <style>.cls-1{fill:#18184c;}.cls-2{fill:#70eb97;}</style>
    </defs>
    <path class="cls-1"
        d="M199.72,70.5a46,46,0,0,1-3.17,17.79,33,33,0,0,1-9,12.58,38.42,38.42,0,0,1-14.23,7.48,66,66,0,0,1-18.81,2.49q-4.75,0-11.1-.39a91.86,91.86,0,0,1-12.47-1.65V32.31a102.44,102.44,0,0,1,12.75-1.53c4.42-.26,8.22-.4,11.39-.4a68.83,68.83,0,0,1,18.3,2.27,37.4,37.4,0,0,1,14.11,7.14,31.77,31.77,0,0,1,9.07,12.46A47.39,47.39,0,0,1,199.72,70.5ZM148.61,95.43c.83.08,1.79.13,2.89.17s2.4.06,3.91.06q13.26,0,19.66-6.69t6.4-18.47q0-12.34-6.12-18.7T156,45.45c-1.21,0-2.46,0-3.74.06a36.21,36.21,0,0,0-3.63.28Z" />
    <path class="cls-1"
        d="M210.49,80.47a36.34,36.34,0,0,1,2.43-13.88,29.8,29.8,0,0,1,6.4-9.92,26.74,26.74,0,0,1,9.13-6,28.53,28.53,0,0,1,10.59-2q12.69,0,20.06,7.76t7.37,22.83c0,1,0,2.06-.12,3.23s-.15,2.21-.22,3.12H227.82a11.19,11.19,0,0,0,4.88,8.27Q237,96.9,244.26,96.9a48.59,48.59,0,0,0,9.12-.85A34.24,34.24,0,0,0,260.69,94L263,107.67a23,23,0,0,1-3.62,1.36,48.43,48.43,0,0,1-5,1.19q-2.78.51-5.95.85a58.55,58.55,0,0,1-6.34.34A37.51,37.51,0,0,1,228,109a27.37,27.37,0,0,1-9.86-6.52,25.75,25.75,0,0,1-5.77-9.8A38.76,38.76,0,0,1,210.49,80.47ZM250.15,74a17.46,17.46,0,0,0-.74-4.19,10.72,10.72,0,0,0-1.92-3.63,10.26,10.26,0,0,0-3.29-2.6,10.71,10.71,0,0,0-4.93-1,11.34,11.34,0,0,0-4.87,1,10,10,0,0,0-3.4,2.55,11.32,11.32,0,0,0-2.1,3.68A24.76,24.76,0,0,0,227.82,74Z" />
    <path class="cls-1"
        d="M295.79,109.82Q290,98.5,284,83.3T272.7,50.21h17.91c.75,2.95,1.65,6.14,2.67,9.58s2.09,6.91,3.19,10.42,2.2,6.94,3.3,10.26S302,86.82,303,89.54q1.47-4.08,3.18-9.07c1.13-3.32,2.26-6.74,3.35-10.26s2.17-7,3.19-10.42,1.92-6.63,2.67-9.58h17.47q-5.36,17.91-11.31,33.09T309.8,109.82Z" />
    <path class="cls-1"
        d="M337.41,80.47a36.54,36.54,0,0,1,2.43-13.88,29.82,29.82,0,0,1,6.41-9.92,26.61,26.61,0,0,1,9.12-6,28.58,28.58,0,0,1,10.6-2q12.69,0,20,7.76t7.37,22.83c0,1,0,2.06-.11,3.23s-.16,2.21-.23,3.12h-38.3a11.18,11.18,0,0,0,4.87,8.27q4.31,3.06,11.56,3.06a48.51,48.51,0,0,0,9.12-.85A34.24,34.24,0,0,0,387.61,94l2.27,13.71a23.55,23.55,0,0,1-3.63,1.36,48.21,48.21,0,0,1-5,1.19c-1.85.34-3.84.62-5.95.85a58.73,58.73,0,0,1-6.35.34,37.46,37.46,0,0,1-14-2.38,27.2,27.2,0,0,1-9.86-6.52,25.65,25.65,0,0,1-5.78-9.8A38.76,38.76,0,0,1,337.41,80.47ZM377.07,74a17.44,17.44,0,0,0-.73-4.19,10.74,10.74,0,0,0-1.93-3.63,10.26,10.26,0,0,0-3.29-2.6,10.71,10.71,0,0,0-4.93-1,11.34,11.34,0,0,0-4.87,1,10,10,0,0,0-3.4,2.55,11.32,11.32,0,0,0-2.1,3.68A23.84,23.84,0,0,0,354.75,74Z" />
    <path class="cls-1"
        d="M430.22,111a42.13,42.13,0,0,1-12-1.58,17.66,17.66,0,0,1-7.25-4.14,13.65,13.65,0,0,1-3.63-6.46,34.93,34.93,0,0,1-1-8.55V24.6l16.89-2.72V86.82a22,22,0,0,0,.34,4.08,6.41,6.41,0,0,0,4.07,5.1,15.21,15.21,0,0,0,4.88,1Z" />
    <path class="cls-1"
        d="M498,79.9a38.78,38.78,0,0,1-2,12.87,28,28,0,0,1-5.9,10,26.35,26.35,0,0,1-9.23,6.4,30.84,30.84,0,0,1-12.07,2.27,30.48,30.48,0,0,1-11.95-2.27,26.39,26.39,0,0,1-9.24-6.4,29.4,29.4,0,0,1-6-10A37.05,37.05,0,0,1,439.4,79.9a35.42,35.42,0,0,1,2.21-12.8,29,29,0,0,1,6.12-9.86A27.63,27.63,0,0,1,457,50.89a31.86,31.86,0,0,1,23.57,0,27,27,0,0,1,9.24,6.35,28.72,28.72,0,0,1,6,9.86A36.3,36.3,0,0,1,498,79.9Zm-17.23,0q0-7.82-3.11-12.29a10.22,10.22,0,0,0-8.9-4.48,10.34,10.34,0,0,0-8.95,4.48q-3.18,4.48-3.18,12.29t3.18,12.41a10.25,10.25,0,0,0,8.95,4.59,10.13,10.13,0,0,0,8.9-4.59Q480.76,87.72,480.76,79.9Z" />
    <path class="cls-2"
        d="M532.6,66.92l11.85-16.71H561.9l-20.69,29a176.19,176.19,0,0,1,12.64,16.24,147.71,147.71,0,0,1,8.84,14.38h-18.1q-.93-1.69-2.28-4.25t-3.06-5.33a27.31,27.31,0,0,0-3.55-4.71q-1.85-1.92-3.64-3.5-1.71,1.45-3.48,3.24a22.81,22.81,0,0,0-3.36,4.43q-1.61,2.67-3.13,5.26t-2.73,4.86H502.18q1.43-2.79,3.76-6.67t5.13-8a95.43,95.43,0,0,1,6-8q3.24-3.9,6.36-7.31L512.78,64.62,502.63,50.21h18.25Z" />
    <path class="cls-2"
        d="M627.18,80a43.44,43.44,0,0,1-1.71,12.58,28.21,28.21,0,0,1-5,9.74,22.49,22.49,0,0,1-8.16,6.35A26.35,26.35,0,0,1,601.11,111a29.84,29.84,0,0,1-6.57-.68,31.21,31.21,0,0,1-5.89-1.92v22.44H571.76V52.25Q574,51.58,577,51t6.18-1.08q3.23-.45,6.57-.73t6.41-.29a36.68,36.68,0,0,1,13.14,2.21A27.11,27.11,0,0,1,619,57.3a26.8,26.8,0,0,1,6.06,9.8A37.61,37.61,0,0,1,627.18,80ZM610,80.47q0-7.81-3.51-12.52T596,63.25c-1.51,0-2.91,0-4.19.17s-2.34.24-3.17.39V94.3a14.72,14.72,0,0,0,4.13,1.7,20.09,20.09,0,0,0,5.16.68Q609.94,96.68,610,80.47Z" />
    <path class="cls-2"
        d="M637.37,80.47a36.34,36.34,0,0,1,2.44-13.88,29.8,29.8,0,0,1,6.4-9.92,26.8,26.8,0,0,1,9.12-6,28.58,28.58,0,0,1,10.6-2q12.69,0,20.06,7.76t7.37,22.83c0,1,0,2.06-.12,3.23s-.15,2.21-.23,3.12h-38.3a11.19,11.19,0,0,0,4.88,8.27c2.86,2,6.72,3.06,11.55,3.06a48.62,48.62,0,0,0,9.13-.85,34,34,0,0,0,7.3-2.09l2.27,13.71a23.38,23.38,0,0,1-3.62,1.36,49,49,0,0,1-5.05,1.19q-2.77.51-5.95.85a58.55,58.55,0,0,1-6.34.34,37.51,37.51,0,0,1-14-2.38,27.37,27.37,0,0,1-9.86-6.52,25.9,25.9,0,0,1-5.78-9.8A39,39,0,0,1,637.37,80.47ZM677,74a18,18,0,0,0-.74-4.19,10.57,10.57,0,0,0-1.93-3.63,10.22,10.22,0,0,0-3.28-2.6,10.74,10.74,0,0,0-4.93-1,11.39,11.39,0,0,0-4.88,1,10,10,0,0,0-3.4,2.55,11.48,11.48,0,0,0-2.09,3.68A24.76,24.76,0,0,0,654.71,74Z" />
    <path class="cls-2"
        d="M742.31,65.17Q740,64.61,737,64a33.5,33.5,0,0,0-6.58-.62,32,32,0,0,0-3.79.28,23.56,23.56,0,0,0-3.35.62v45.56H706.39V53.39a101.82,101.82,0,0,1,10.71-3A62,62,0,0,1,730.87,49c.9,0,2,.05,3.28.17s2.57.26,3.86.45,2.56.42,3.85.68a19.55,19.55,0,0,1,3.29,1Z" />
    <path class="cls-2"
        d="M753.65,35.37l16.88-2.72V50.21h20.28V64.26H770.53v21a16.63,16.63,0,0,0,1.87,8.5c1.25,2.12,3.76,3.17,7.54,3.17a32.12,32.12,0,0,0,5.6-.51A29.06,29.06,0,0,0,790.81,95l2.38,13.14a47.21,47.21,0,0,1-6.79,2.15,39.38,39.38,0,0,1-9.18.91,30.16,30.16,0,0,1-11.45-1.87,17.86,17.86,0,0,1-7.25-5.21,19.37,19.37,0,0,1-3.8-8.1,47.78,47.78,0,0,1-1.07-10.54Z" />
    <path class="cls-1"
        d="M2.3,92.26a7.47,7.47,0,0,0,10.55,0L29.24,75.87l5.27-5.28a7.44,7.44,0,0,0,0-10.54L12.74,38.26a7.47,7.47,0,0,0-10.55,0h0a7.46,7.46,0,0,0,0,10.55l16.5,16.51L2.3,81.7a7.46,7.46,0,0,0,0,10.56Z" />
    <path class="cls-2"
        d="M93,59.49,82.48,49V29c0-11.64-7.71-29-29-29H8.16A8.17,8.17,0,0,0,0,8.16H0a8.17,8.17,0,0,0,8.16,8.17H53.5c12,0,12.65,10.53,12.65,12.64V52.38a8.09,8.09,0,0,0,2.38,5.75l7.15,7.16-.1.1-7.06,7.15a8.14,8.14,0,0,0-2.37,5.74v23.53c0,12-10.53,12.65-12.65,12.65H8.16A8.16,8.16,0,0,0,0,122.62H0a8.17,8.17,0,0,0,8.16,8.17H53.5c11.66,0,29-7.72,29-29V81.64L93,71a8.16,8.16,0,0,0,0-11.52Z" />
</svg>